<?xml version="1.0" encoding="utf-8"?>
<!-- Generator: Adobe Illustrator 15.0.0, SVG Export Plug-In . SVG Version: 6.00 Build 0)  -->
<!DOCTYPE svg PUBLIC "-//W3C//DTD SVG 1.1//EN" "http://www.w3.org/Graphics/SVG/1.1/DTD/svg11.dtd">
<svg version="1.1" id="Layer_1" xmlns="http://www.w3.org/2000/svg" xmlns:xlink="http://www.w3.org/1999/xlink" x="0px" y="0px"
	 width="510px" height="607px" viewBox="15 -113.5 510 607" enable-background="new 15 -113.5 510 607" xml:space="preserve">
<image overflow="visible" width="662" height="477" xlink:href="89AA8603.jpg"  transform="matrix(0.7009 0 0 0.7009 40 153.5)">
</image>
<image overflow="visible" width="489" height="345" xlink:href="pangenome.png"  transform="matrix(0.7072 0 0 0.7072 29 -90.5)">
</image>
<path fill="none" stroke="#000000" stroke-width="2" d="M517,473.056c0,8.161-5.261,14.776-11.752,14.776H35.753
	c-6.492,0-11.753-6.613-11.753-14.776V-92.266c0-8.158,5.261-14.773,11.753-14.773h469.495c6.492,0,11.752,6.616,11.752,14.773
	V473.056z"/>
<text transform="matrix(1 0 0 1 394.8438 -64.125)" font-family="'MyriadPro-Regular'" font-size="23.5367">a)</text>
<text transform="matrix(1 0 0 1 395.0234 129.875)" font-family="'MyriadPro-Regular'" font-size="23.5367">b)</text>
</svg>
