<?xml version="1.0" encoding="utf-8"?>
<!-- Generator: Adobe Illustrator 15.0.0, SVG Export Plug-In . SVG Version: 6.00 Build 0)  -->
<!DOCTYPE svg PUBLIC "-//W3C//DTD SVG 1.1//EN" "http://www.w3.org/Graphics/SVG/1.1/DTD/svg11.dtd">
<svg version="1.1" id="Layer_1" xmlns="http://www.w3.org/2000/svg" xmlns:xlink="http://www.w3.org/1999/xlink" x="0px" y="0px"
	 width="802.598px" height="818.632px" viewBox="-1.149 -116 802.598 818.632" enable-background="new -1.149 -116 802.598 818.632"
	 xml:space="preserve">
<image overflow="visible" width="932" height="461" xlink:href="759C15D8.jpg"  transform="matrix(0.6334 0 0 0.6334 102.9312 404.0029)">
</image>
<path fill="none" stroke="#000000" stroke-width="2" d="M791.5,676.053c0,11.018-8.301,19.947-18.544,19.947H32.099
	c-10.245,0-18.546-8.928-18.546-19.947V-87.097c0-11.012,8.301-19.942,18.546-19.942h740.857c10.244,0,18.544,8.932,18.544,19.942
	V676.053z"/>
<text transform="matrix(1 0 0 1 22.0234 238.4912)" font-family="'MyriadPro-Regular'" font-size="23.5367">b)</text>
<image overflow="visible" width="1075" height="437" xlink:href="759C15D9.jpg"  transform="matrix(0.6841 0 0 0.6841 40.9736 -98)">
</image>
<image overflow="visible" width="393" height="379" xlink:href="759C15DF.jpg"  transform="matrix(0.5192 0 0 0.5192 48.9736 218)">
</image>
<image overflow="visible" width="441" height="422" xlink:href="759C15DA.jpg"  transform="matrix(0.4584 0 0 0.4584 294.167 219.6523)">
</image>
<image overflow="visible" width="441" height="410" xlink:href="759C15DB.jpg"  transform="matrix(0.467 0 0 0.467 572.5 221.291)">
</image>
<text transform="matrix(1 0 0 1 23.8438 -71.125)" font-family="'MyriadPro-Regular'" font-size="23.5367">a)</text>
<text transform="matrix(1 0 0 1 24.8438 440.1221)" font-family="'MyriadPro-Regular'" font-size="23.5367">c)</text>
</svg>
